<svg viewBox="0 0 720 360" xmlns="http://www.w3.org/2000/svg" role="img" aria-label="Cada órgano de la paloma se procesa en un tubo de ensayo y se prueba con un imán; una gráfica muestra que el hígado tiene la señal magnética más alta.">
  <style>
    text{font-family:-apple-system,BlinkMacSystemFont,"Segoe UI",Roboto,Helvetica,Arial,sans-serif}
    .ink{fill:#37352f}.muted{fill:#787774}
    .stroke{stroke:#cfcecb;fill:none;stroke-width:2}
    .thin{stroke:#cfcecb;fill:none;stroke-width:1.5}
    .panel{fill:#ffffff;stroke:#ecebe9;stroke-width:1.5}
    .accent{fill:#2e7d5b}.accentS{stroke:#2e7d5b}
    .iron{fill:#b5713a}.ironS{stroke:#b5713a}
    .fill-muted{fill:#e7e6e3}
    @media (prefers-color-scheme:dark){
      .ink{fill:#e8e6e3}.muted{fill:#9b9a97}
      .stroke{stroke:#3f3f3f}.thin{stroke:#3f3f3f}
      .panel{fill:#202020;stroke:#2d2d2d}
      .accent{fill:#58c294}.accentS{stroke:#58c294}
      .iron{fill:#cf9765}.ironS{stroke:#cf9765}
      .fill-muted{fill:#333}
    }
  </style>

  <!-- ===== Panel A: órganos a tubos ===== -->
  <text x="24" y="28" class="ink" font-size="15" font-weight="700">Órgano por órgano</text>

  <!-- pigeon cartoon -->
  <g transform="translate(30,50)">
    <ellipse cx="34" cy="30" rx="30" ry="19" class="fill-muted"/>
    <circle cx="10" cy="16" r="12" class="fill-muted"/>
    <path d="M-1 14 l-11 3 l11 4 z" class="iron"/>
    <circle cx="7" cy="14" r="1.8" class="ink"/>
    <path d="M55 22 q22 -6 30 8 q-18 -2 -30 2 z" class="fill-muted"/>
  </g>

  <!-- arrow -->
  <path d="M40 118 q30 26 0 40" class="thin" stroke-dasharray="4 4"/>
  <path d="M40 158 l-5 -8 l10 0 z" class="muted" stroke="none"/>

  <!-- three test tubes -->
  <g transform="translate(24,180)">
    <!-- Hígado -->
    <g transform="translate(0,0)">
      <rect x="0" y="0" width="20" height="70" rx="10" class="stroke"/>
      <rect x="0" y="42" width="20" height="28" rx="10" class="accent"/>
      <text x="10" y="90" class="ink" font-size="11" font-weight="600" text-anchor="middle">Hígado</text>
    </g>
    <!-- Cerebro -->
    <g transform="translate(72,0)">
      <rect x="0" y="0" width="20" height="70" rx="10" class="stroke"/>
      <rect x="0" y="58" width="20" height="12" rx="6" class="fill-muted"/>
      <text x="10" y="90" class="muted" font-size="11" text-anchor="middle">Cerebro</text>
    </g>
    <!-- Músculo -->
    <g transform="translate(144,0)">
      <rect x="0" y="0" width="20" height="70" rx="10" class="stroke"/>
      <rect x="0" y="62" width="20" height="8" rx="4" class="fill-muted"/>
      <text x="10" y="90" class="muted" font-size="11" text-anchor="middle">Músculo</text>
    </g>
    <text x="184" y="45" class="muted" font-size="18">…</text>
  </g>

  <!-- ===== Panel B: imán ===== -->
  <line x1="250" y1="60" x2="250" y2="300" class="thin" stroke-dasharray="3 5"/>
  <text x="276" y="28" class="ink" font-size="15" font-weight="700">¿Es magnético?</text>

  <g transform="translate(290,120)">
    <!-- horseshoe magnet -->
    <path d="M8 70 L8 30 A28 28 0 0 1 64 30 L64 70" fill="none" class="ironS" stroke-width="16" stroke-linecap="butt"/>
    <rect x="0" y="66" width="16" height="14" class="iron"/>
    <rect x="56" y="66" width="16" height="14" class="accent"/>
    <!-- field lines -->
    <path d="M12 24 q24 -30 48 0" class="thin"/>
    <path d="M4 34 q32 -44 64 0" class="thin"/>
    <text x="8" y="98" class="muted" font-size="11">N</text>
    <text x="60" y="98" class="muted" font-size="11">S</text>
  </g>

  <!-- ===== Panel C: gráfica ===== -->
  <line x1="470" y1="60" x2="470" y2="300" class="thin" stroke-dasharray="3 5"/>
  <text x="496" y="28" class="ink" font-size="15" font-weight="700">Señal magnética</text>

  <g transform="translate(500,70)">
    <!-- axes -->
    <line x1="0" y1="0" x2="0" y2="210" class="stroke"/>
    <line x1="0" y1="210" x2="196" y2="210" class="stroke"/>
    <!-- bars -->
    <rect x="18" y="30" width="34" height="180" rx="3" class="accent"/>
    <rect x="66" y="150" width="34" height="60" rx="3" class="fill-muted"/>
    <rect x="114" y="188" width="34" height="22" rx="3" class="fill-muted"/>
    <rect x="162" y="196" width="24" height="14" rx="3" class="fill-muted"/>
    <!-- labels -->
    <text x="35" y="226" class="ink" font-size="10" font-weight="600" text-anchor="middle">Hígado</text>
    <text x="83" y="226" class="muted" font-size="10" text-anchor="middle">Bazo</text>
    <text x="131" y="226" class="muted" font-size="10" text-anchor="middle">Ojos</text>
    <text x="174" y="226" class="muted" font-size="9" text-anchor="middle">Músc.</text>
    <text x="35" y="22" class="accent" font-size="16">★</text>
  </g>
</svg>
