<svg viewBox="0 0 720 360" xmlns="http://www.w3.org/2000/svg" role="img" aria-label="Cada órgano de la paloma se procesa en un tubo de ensayo y, en el mismo marco, un imán apunta a cada tubo para probar si es magnético; una gráfica muestra que el hígado tiene la señal magnética más alta.">
  <style>
    text{font-family:-apple-system,BlinkMacSystemFont,"Segoe UI",Roboto,Helvetica,Arial,sans-serif}
    .ink{fill:#37352f}.muted{fill:#787774}
    .stroke{stroke:#cfcecb;fill:none;stroke-width:2}
    .thin{stroke:#cfcecb;fill:none;stroke-width:1.5}
    .panel{fill:#ffffff;stroke:#ecebe9;stroke-width:1.5}
    .accent{fill:#2e7d5b}.accentS{stroke:#2e7d5b}
    .iron{fill:#b5713a}.ironS{stroke:#b5713a}
    .fill-muted{fill:#e7e6e3}
    @media (prefers-color-scheme:dark){
      .ink{fill:#e8e6e3}.muted{fill:#9b9a97}
      .stroke{stroke:#3f3f3f}.thin{stroke:#3f3f3f}
      .panel{fill:#202020;stroke:#2d2d2d}
      .accent{fill:#58c294}.accentS{stroke:#58c294}
      .iron{fill:#cf9765}.ironS{stroke:#cf9765}
      .fill-muted{fill:#333}
    }
  </style>

  <!-- ===== Zona 1: órgano por órgano ===== -->
  <text x="24" y="28" class="ink" font-size="15" font-weight="700">Órgano por órgano</text>

  <!-- pigeon cartoon -->
  <g transform="translate(30,60)">
    <ellipse cx="34" cy="30" rx="30" ry="19" class="fill-muted"/>
    <circle cx="10" cy="16" r="12" class="fill-muted"/>
    <path d="M-1 14 l-11 3 l11 4 z" class="iron"/>
    <circle cx="7" cy="14" r="1.8" class="ink"/>
    <path d="M55 22 q22 -6 30 8 q-18 -2 -30 2 z" class="fill-muted"/>
  </g>
  <text x="24" y="150" class="muted" font-size="11">Cada órgano</text>
  <text x="24" y="166" class="muted" font-size="11">a un tubo</text>

  <!-- arrow into the frame -->
  <path d="M120 150 C 155 165, 168 168, 190 176" class="thin" stroke-dasharray="4 4"/>
  <path d="M190 176 l-10 -3 l3 10 z" class="muted" stroke="none"/>

  <line x1="196" y1="60" x2="196" y2="300" class="thin" stroke-dasharray="3 5"/>

  <!-- ===== Zona 2: tubos + imanes en el mismo marco ===== -->
  <text x="216" y="28" class="ink" font-size="15" font-weight="700">¿Es magnético?</text>
  <rect x="204" y="72" width="232" height="216" rx="14" class="panel"/>

  <g transform="translate(220,120)">
    <!-- Hígado: magnético -->
    <g transform="translate(0,0)">
      <!-- imán encima, abierto hacia abajo, apuntando al tubo -->
      <path d="M2 26 L2 12 A9 9 0 0 1 20 12 L20 26" fill="none" class="ironS" stroke-width="7" stroke-linecap="butt"/>
      <rect x="-1" y="24" width="7" height="8" class="iron"/>
      <rect x="15" y="24" width="7" height="8" class="accent"/>
      <!-- líneas de atracción -->
      <path d="M4 34 l0 8" class="accentS" stroke-width="1.5" stroke-dasharray="2 3"/>
      <path d="M18 34 l0 8" class="accentS" stroke-width="1.5" stroke-dasharray="2 3"/>
      <!-- tubo -->
      <rect x="0" y="46" width="20" height="70" rx="10" class="stroke"/>
      <rect x="0" y="60" width="20" height="56" rx="10" class="accent"/>
      <text x="10" y="136" class="ink" font-size="11" font-weight="600" text-anchor="middle">Hígado</text>
      <text x="29" y="60" class="accent" font-size="14">★</text>
    </g>
    <!-- Cerebro -->
    <g transform="translate(76,0)">
      <path d="M2 26 L2 12 A9 9 0 0 1 20 12 L20 26" fill="none" class="ironS" stroke-width="7" stroke-linecap="butt"/>
      <rect x="-1" y="24" width="7" height="8" class="iron"/>
      <rect x="15" y="24" width="7" height="8" class="accent"/>
      <rect x="0" y="46" width="20" height="70" rx="10" class="stroke"/>
      <rect x="0" y="104" width="20" height="12" rx="6" class="fill-muted"/>
      <text x="10" y="136" class="muted" font-size="11" text-anchor="middle">Cerebro</text>
    </g>
    <!-- Músculo -->
    <g transform="translate(152,0)">
      <path d="M2 26 L2 12 A9 9 0 0 1 20 12 L20 26" fill="none" class="ironS" stroke-width="7" stroke-linecap="butt"/>
      <rect x="-1" y="24" width="7" height="8" class="iron"/>
      <rect x="15" y="24" width="7" height="8" class="accent"/>
      <rect x="0" y="46" width="20" height="70" rx="10" class="stroke"/>
      <rect x="0" y="108" width="20" height="8" rx="4" class="fill-muted"/>
      <text x="10" y="136" class="muted" font-size="11" text-anchor="middle">Músculo</text>
    </g>
  </g>

  <line x1="470" y1="60" x2="470" y2="300" class="thin" stroke-dasharray="3 5"/>

  <!-- ===== Zona 3: gráfica ===== -->
  <text x="496" y="28" class="ink" font-size="15" font-weight="700">Señal magnética</text>

  <g transform="translate(500,70)">
    <!-- axes -->
    <line x1="0" y1="0" x2="0" y2="210" class="stroke"/>
    <line x1="0" y1="210" x2="196" y2="210" class="stroke"/>
    <!-- bars -->
    <rect x="18" y="30" width="34" height="180" rx="3" class="accent"/>
    <rect x="66" y="150" width="34" height="60" rx="3" class="fill-muted"/>
    <rect x="114" y="188" width="34" height="22" rx="3" class="fill-muted"/>
    <rect x="162" y="196" width="24" height="14" rx="3" class="fill-muted"/>
    <!-- labels -->
    <text x="35" y="226" class="ink" font-size="10" font-weight="600" text-anchor="middle">Hígado</text>
    <text x="83" y="226" class="muted" font-size="10" text-anchor="middle">Bazo</text>
    <text x="131" y="226" class="muted" font-size="10" text-anchor="middle">Ojos</text>
    <text x="174" y="226" class="muted" font-size="9" text-anchor="middle">Músc.</text>
    <text x="35" y="22" class="accent" font-size="16">★</text>
  </g>
</svg>
