<svg viewBox="0 0 1200 210" xmlns="http://www.w3.org/2000/svg" role="img" aria-label="Diagrama de flujo horizontal: si una célula es positiva para azul de Prusia, tiene morfología de macrófago, marcadores moleculares de macrófago y desaparece con un fármaco que elimina macrófagos, entonces es un macrófago.">
  <style>
    text{font-family:-apple-system,BlinkMacSystemFont,"Segoe UI",Roboto,Helvetica,Arial,sans-serif}
    .ink{fill:#37352f}.muted{fill:#787774}
    .box{fill:#ffffff;stroke:#d8d7d4;stroke-width:1.5}
    .arrow{stroke:#9b9a97;fill:none;stroke-width:2}
    .head{fill:#9b9a97}
    .accentBox{fill:#2e7d5b;stroke:#2e7d5b}
    .accent{fill:#2e7d5b}.on-accent{fill:#ffffff}
    @media (prefers-color-scheme:dark){
      .ink{fill:#e8e6e3}.muted{fill:#9b9a97}
      .box{fill:#202020;stroke:#3f3f3f}
      .arrow{stroke:#6f6e6b}.head{fill:#6f6e6b}
      .accentBox{fill:#2f6f52;stroke:#58c294}
      .accent{fill:#58c294}.on-accent{fill:#eafff5}
    }
  </style>

  <!-- Box 1 -->
  <rect x="20" y="45" width="200" height="110" rx="10" class="box"/>
  <text x="120" y="95" class="ink" font-size="13" text-anchor="middle">¿Positiva para</text>
  <text x="120" y="115" class="ink" font-size="13" text-anchor="middle">azul de Prusia?</text>

  <!-- arrow 1 -->
  <line x1="220" y1="100" x2="256" y2="100" class="arrow"/>
  <path d="M260 100 l-9 -5 l0 10 z" class="head"/>
  <text x="240" y="90" class="accent" font-size="13" font-weight="600" text-anchor="middle">Sí</text>

  <!-- Box 2 -->
  <rect x="260" y="45" width="200" height="110" rx="10" class="box"/>
  <text x="360" y="95" class="ink" font-size="13" text-anchor="middle">¿Morfología</text>
  <text x="360" y="115" class="ink" font-size="13" text-anchor="middle">tipo macrófago?</text>

  <!-- arrow 2 -->
  <line x1="460" y1="100" x2="496" y2="100" class="arrow"/>
  <path d="M500 100 l-9 -5 l0 10 z" class="head"/>
  <text x="480" y="90" class="accent" font-size="13" font-weight="600" text-anchor="middle">Sí</text>

  <!-- Box 3 -->
  <rect x="500" y="45" width="200" height="110" rx="10" class="box"/>
  <text x="600" y="86" class="ink" font-size="13" text-anchor="middle">¿Los marcadores</text>
  <text x="600" y="106" class="ink" font-size="13" text-anchor="middle">moleculares apuntan</text>
  <text x="600" y="126" class="ink" font-size="13" text-anchor="middle">a macrófago?</text>

  <!-- arrow 3 -->
  <line x1="700" y1="100" x2="736" y2="100" class="arrow"/>
  <path d="M740 100 l-9 -5 l0 10 z" class="head"/>
  <text x="720" y="90" class="accent" font-size="13" font-weight="600" text-anchor="middle">Sí</text>

  <!-- Box 4 -->
  <rect x="740" y="45" width="200" height="110" rx="10" class="box"/>
  <text x="840" y="77" class="ink" font-size="13" text-anchor="middle">¿Un fármaco que</text>
  <text x="840" y="97" class="ink" font-size="13" text-anchor="middle">elimina macrófagos</text>
  <text x="840" y="117" class="ink" font-size="13" text-anchor="middle">hace desaparecer estas</text>
  <text x="840" y="137" class="ink" font-size="13" text-anchor="middle">células con hierro?</text>

  <!-- arrow 4 -->
  <line x1="940" y1="100" x2="976" y2="100" class="arrow"/>
  <path d="M980 100 l-9 -5 l0 10 z" class="head"/>
  <text x="960" y="90" class="accent" font-size="13" font-weight="600" text-anchor="middle">Sí</text>

  <!-- Final -->
  <rect x="980" y="45" width="200" height="110" rx="12" class="accentBox"/>
  <text x="1080" y="95" class="on-accent" font-size="17" font-weight="700" text-anchor="middle">¡Bingo!</text>
  <text x="1080" y="118" class="on-accent" font-size="13" text-anchor="middle">Son macrófagos</text>
</svg>
